<?xml version="1.0" standalone="no"?>
<!DOCTYPE svg PUBLIC "-//W3C//DTD SVG 20010904//EN"
 "http://www.w3.org/TR/2001/REC-SVG-20010904/DTD/svg10.dtd">
<svg version="1.0" xmlns="http://www.w3.org/2000/svg"
 width="260.000000pt" height="260.000000pt" viewBox="0 0 260.000000 260.000000"
 preserveAspectRatio="xMidYMid meet">
<metadata>
Created by potrace 1.11, written by Peter Selinger 2001-2013
</metadata>
<g transform="translate(0.000000,260.000000) scale(0.100000,-0.100000)"
fill="#000000" stroke="none">
<path d="M1150 2593 c-290 -44 -513 -146 -713 -323 -289 -256 -441 -608 -432
-1000 2 -80 6 -156 9 -170 4 -14 9 -38 12 -55 9 -54 25 -120 34 -140 4 -11 22
-56 39 -100 130 -335 443 -626 794 -739 147 -48 230 -60 407 -60 177 0 263 13
410 61 462 154 795 548 874 1034 13 80 15 324 3 394 -50 289 -167 517 -371
720 -143 143 -283 235 -451 298 -74 28 -206 64 -265 73 -44 7 -317 12 -350 7z
m354 -316 c337 -73 602 -297 728 -617 82 -209 87 -461 13 -688 -59 -180 -200
-368 -365 -486 -267 -192 -631 -237 -947 -116 -279 107 -523 379 -598 669 -26
101 -30 134 -29 261 0 173 24 288 89 423 201 421 662 651 1109 554z"/>
<path d="M1275 2005 c-282 -72 -472 -272 -550 -578 -75 -297 -34 -528 121
-683 59 -59 154 -116 214 -128 14 -2 43 -8 65 -13 64 -15 204 -7 295 16 259
67 419 258 437 522 9 134 -34 262 -111 332 -35 33 -114 72 -166 84 -74 16
-221 6 -299 -21 -70 -24 -171 -82 -171 -98 0 -5 -4 -8 -10 -8 -35 0 26 119 96
186 42 40 69 56 123 74 77 24 203 29 292 11 30 -6 64 -13 76 -15 12 -3 31 -10
42 -16 16 -8 22 -8 26 2 3 7 21 58 41 113 20 55 40 111 44 125 4 14 11 33 15
42 5 14 -5 20 -62 37 -107 31 -168 39 -303 39 -97 0 -145 -5 -215 -23z m140
-727 c108 -56 107 -251 -2 -334 -86 -65 -242 -64 -311 3 -76 73 -75 202 2 279
34 34 105 66 160 71 28 3 52 6 54 8 5 4 73 -15 97 -27z"/>
</g>
</svg>
