<?xml version="1.0" standalone="no"?>
<!DOCTYPE svg PUBLIC "-//W3C//DTD SVG 20010904//EN"
 "http://www.w3.org/TR/2001/REC-SVG-20010904/DTD/svg10.dtd">
<svg version="1.0" xmlns="http://www.w3.org/2000/svg"
 width="260.000000pt" height="260.000000pt" viewBox="0 0 260.000000 260.000000"
 preserveAspectRatio="xMidYMid meet">
<metadata>
Created by potrace 1.11, written by Peter Selinger 2001-2013
</metadata>
<g transform="translate(0.000000,260.000000) scale(0.100000,-0.100000)"
fill="#000000" stroke="none">
<path d="M539 2596 c-2 -2 -24 -6 -49 -9 -220 -26 -412 -204 -471 -437 -20
-79 -21 -1593 -1 -1689 50 -240 243 -415 492 -448 36 -4 398 -8 805 -8 828 0
828 0 970 71 164 82 283 252 298 430 2 23 7 46 10 51 9 14 3 1511 -6 1543 -3
14 -12 48 -18 75 -47 200 -219 362 -439 411 -35 8 -1583 18 -1591 10z m1551
-157 c110 -21 219 -90 279 -177 23 -33 53 -111 67 -172 4 -19 9 -361 10 -760
3 -798 2 -830 -55 -945 -60 -121 -161 -192 -321 -223 -49 -10 -1495 -9 -1550
1 -191 34 -319 156 -359 342 -7 33 -10 307 -10 795 0 812 0 818 57 924 57 107
182 196 302 216 71 12 1516 11 1580 -1z"/>
<path d="M1940 1965 c-36 -7 -83 -15 -105 -18 -22 -4 -105 -18 -185 -32 -186
-34 -730 -130 -800 -141 -221 -37 -356 -66 -373 -81 -97 -88 -29 -234 102
-220 25 3 96 14 156 26 61 11 126 23 145 26 19 3 42 8 50 10 8 2 32 6 53 9 20
3 54 9 75 12 20 3 44 7 52 9 8 2 38 7 65 11 28 3 52 8 55 9 3 2 50 11 105 20
55 10 109 19 120 21 11 2 45 8 75 13 30 5 134 24 230 41 96 17 210 37 254 45
82 14 108 30 133 79 20 38 10 107 -20 133 -50 46 -76 50 -187 28z"/>
<path d="M1977 1524 c-1 -2 -133 -25 -292 -53 -160 -28 -301 -53 -315 -55 -14
-3 -63 -12 -110 -20 -47 -8 -96 -17 -110 -20 -14 -3 -81 -14 -150 -26 -69 -11
-145 -25 -170 -30 -25 -5 -58 -11 -75 -14 -98 -14 -223 -39 -249 -50 -46 -19
-68 -50 -73 -100 -5 -38 -1 -51 20 -79 46 -61 68 -64 247 -33 87 15 168 29
181 31 13 3 50 9 81 15 32 6 70 12 85 15 16 3 93 16 173 30 181 31 167 29 335
59 77 14 157 28 179 32 21 3 46 7 55 9 9 1 75 13 146 25 72 13 143 29 158 37
45 23 69 70 62 122 -8 71 -62 114 -136 109 -22 -1 -41 -3 -42 -4z"/>
<path d="M1955 1069 c-32 -6 -168 -30 -365 -64 -222 -39 -375 -66 -415 -75
-27 -5 -104 -19 -170 -30 -66 -11 -133 -22 -150 -25 -16 -3 -95 -17 -175 -31
-80 -13 -160 -31 -178 -39 -41 -18 -72 -69 -72 -117 0 -43 49 -102 93 -113 16
-4 83 3 155 15 70 13 138 24 152 26 14 2 124 21 245 43 121 22 274 49 340 61
164 27 176 30 205 35 37 8 58 11 137 25 39 6 77 13 85 14 7 1 58 10 113 20 55
10 112 22 127 28 98 37 100 183 3 224 -36 15 -60 15 -130 3z"/>
</g>
</svg>
